<?xml version="1.0" encoding="utf-8"?>
<svg version="1.1" xmlns:xlink="http://www.w3.org/1999/xlink" width="111px" height="51px" xmlns="http://www.w3.org/2000/svg">
  <g transform="matrix(1 0 0 1 -2592 -1187 )">
    <path d="M 2592 1187  L 2703 1187  L 2703 1238  L 2592 1238  L 2592 1187  " fill-rule="nonzero" fill="#cccccc" stroke="none" />
    <path d="M 2596 1191  L 2699 1191  L 2699 1234  L 2596 1234  L 2596 1191  " fill-rule="nonzero" fill="#ffffff" stroke="none" />
    <path d="M 2653.545 1202.3  C 2651.403 1202.3  2649.72 1200.617  2649.72 1198.475  C 2649.72 1196.333  2651.403 1194.65  2653.545 1194.65  C 2655.687 1194.65  2657.37 1196.333  2657.37 1198.475  C 2657.37 1200.617  2655.687 1202.3  2653.545 1202.3  " fill-rule="nonzero" fill="#cccccc" stroke="none" />
    <path d="M 2598 1233  L 2598 1211  L 2623 1201  L 2658 1221.97297297297  L 2678 1207  L 2698 1221.97297297297  L 2698 1233  L 2598 1233  " fill-rule="nonzero" fill="#169bd5" stroke="none" />
  </g>
</svg>