<?xml version="1.0" encoding="utf-8"?>
<svg version="1.1" xmlns:xlink="http://www.w3.org/1999/xlink" width="36px" height="38px" xmlns="http://www.w3.org/2000/svg">
  <g transform="matrix(1 0 0 1 -351 -415 )">
    <path d="M 25.0745192307692 28.8286830357143  C 25.6802884615385 28.1430431547619  25.9831730769231 27.2842261904762  25.9831730769231 26.2522321428571  C 25.9831730769231 25.4464285714286  25.9435096153846 24.6901041666667  25.8641826923077 23.9832589285714  C 25.7848557692308 23.2764136904762  25.6334134615385 22.5660342261905  25.4098557692308 21.8521205357143  C 25.1862980769231 21.1382068452381  24.9014423076923 20.5303199404762  24.5552884615385 20.0284598214286  C 24.2091346153846 19.5265997023809  23.7475961538462 19.1166294642857  23.1706730769231 18.7985491071429  C 22.59375 18.48046875  21.9375 18.3214285714286  21.2019230769231 18.3214285714286  C 21.1153846153846 18.3779761904762  20.8737980769231 18.5228794642857  20.4771634615385 18.7561383928571  C 20.0805288461538 18.9893973214286  19.7740384615385 19.1625744047619  19.5576923076923 19.2756696428571  C 19.3413461538462 19.3887648809524  19.0492788461538 19.5301339285714  18.6814903846154 19.6997767857143  C 18.3137019230769 19.8694196428571  17.9603365384615 19.9895833333333  17.6213942307692 20.0602678571429  C 17.2824519230769 20.1309523809524  16.9471153846154 20.1662946428571  16.6153846153846 20.1662946428571  C 16.2836538461538 20.1662946428571  15.9483173076923 20.1309523809524  15.609375 20.0602678571429  C 15.2704326923077 19.9895833333333  14.9170673076923 19.8694196428571  14.5492788461538 19.6997767857143  C 14.1814903846154 19.5301339285714  13.8894230769231 19.3887648809524  13.6730769230769 19.2756696428571  C 13.4567307692308 19.1625744047619  13.1502403846154 18.9893973214286  12.7536057692308 18.7561383928571  C 12.3569711538462 18.5228794642857  12.1153846153846 18.3779761904762  12.0288461538462 18.3214285714286  C 11.2932692307692 18.3214285714286  10.6370192307692 18.48046875  10.0600961538462 18.7985491071429  C 9.48317307692308 19.1166294642857  9.02163461538462 19.5265997023809  8.67548076923077 20.0284598214286  C 8.32932692307692 20.5303199404762  8.04447115384616 21.1382068452381  7.82091346153846 21.8521205357143  C 7.59735576923077 22.5660342261905  7.44591346153846 23.2764136904762  7.36658653846154 23.9832589285714  C 7.28725961538462 24.6901041666667  7.24759615384615 25.4464285714286  7.24759615384615 26.2522321428571  C 7.24759615384615 27.2842261904762  7.55048076923077 28.1430431547619  8.15625 28.8286830357143  C 8.76201923076923 29.5143229166667  9.50480769230769 29.8571428571429  10.3846153846154 29.8571428571429  L 22.8461538461538 29.8571428571429  C 23.7259615384615 29.8571428571429  24.46875 29.5143229166667  25.0745192307692 28.8286830357143  Z M 20.5853365384615 17.5368303571429  C 21.6887019230769 16.4624255952381  22.2403846153846 15.1688988095238  22.2403846153846 13.65625  C 22.2403846153846 12.1294642857143  21.6887019230769 10.828869047619  20.5853365384615 9.75446428571429  C 19.4819711538462 8.68005952380952  18.1586538461538 8.14285714285714  16.6153846153846 8.14285714285714  C 15.0721153846154 8.14285714285714  13.7487980769231 8.68005952380952  12.6454326923077 9.75446428571429  C 11.5420673076923 10.828869047619  10.9903846153846 12.1294642857143  10.9903846153846 13.65625  C 10.9903846153846 15.1688988095238  11.5420673076923 16.4624255952381  12.6454326923077 17.5368303571429  C 13.7487980769231 18.6112351190476  15.0721153846154 19.1484375  16.6153846153846 19.1484375  C 18.1586538461538 19.1484375  19.4819711538462 18.6112351190476  20.5853365384615 17.5368303571429  Z M 35.8052884615385 24.6194196428571  C 35.9350961538462 24.7466517857143  36 24.9092261904762  36 25.1071428571429  L 36 29.1785714285714  C 36 29.3764880952381  35.9350961538462 29.5390625  35.8052884615385 29.6662946428571  C 35.6754807692308 29.7935267857143  35.5096153846154 29.8571428571429  35.3076923076923 29.8571428571429  L 33.2307692307692 29.8571428571429  L 33.2307692307692 34.6071428571429  C 33.2307692307692 35.5401785714286  32.8918269230769 36.3389136904762  32.2139423076923 37.0033482142857  C 31.5360576923077 37.6677827380952  30.7211538461538 38  29.7692307692308 38  L 3.46153846153846 38  C 2.50961538461538 38  1.69471153846154 37.6677827380952  1.01682692307692 37.0033482142857  C 0.338942307692308 36.3389136904762  0 35.5401785714286  0 34.6071428571429  L 0 3.39285714285714  C 0 2.45982142857143  0.338942307692308 1.66108630952381  1.01682692307692 0.996651785714287  C 1.69471153846154 0.332217261904762  2.50961538461538 0  3.46153846153846 0  L 29.7692307692308 0  C 30.7211538461538 0  31.5360576923077 0.332217261904762  32.2139423076923 0.996651785714287  C 32.8918269230769 1.66108630952381  33.2307692307692 2.45982142857143  33.2307692307692 3.39285714285714  L 33.2307692307692 8.14285714285714  L 35.3076923076923 8.14285714285714  C 35.5096153846154 8.14285714285714  35.6754807692308 8.20647321428571  35.8052884615385 8.33370535714286  C 35.9350961538462 8.4609375  36 8.6235119047619  36 8.82142857142857  L 36 12.8928571428571  C 36 13.0907738095238  35.9350961538462 13.2533482142857  35.8052884615385 13.3805803571429  C 35.6754807692308 13.5078125  35.5096153846154 13.5714285714286  35.3076923076923 13.5714285714286  L 33.2307692307692 13.5714285714286  L 33.2307692307692 16.2857142857143  L 35.3076923076923 16.2857142857143  C 35.5096153846154 16.2857142857143  35.6754807692308 16.3493303571429  35.8052884615385 16.4765625  C 35.9350961538462 16.6037946428571  36 16.766369047619  36 16.9642857142857  L 36 21.0357142857143  C 36 21.2336309523809  35.9350961538462 21.3962053571429  35.8052884615385 21.5234375  C 35.6754807692308 21.6506696428571  35.5096153846154 21.7142857142857  35.3076923076923 21.7142857142857  L 33.2307692307692 21.7142857142857  L 33.2307692307692 24.4285714285714  L 35.3076923076923 24.4285714285714  C 35.5096153846154 24.4285714285714  35.6754807692308 24.4921875  35.8052884615385 24.6194196428571  Z " fill-rule="nonzero" fill="#c4210b" stroke="none" transform="matrix(1 0 0 1 351 415 )" />
  </g>
</svg>