<?xml version="1.0" encoding="utf-8"?>
<svg version="1.1" xmlns:xlink="http://www.w3.org/1999/xlink" width="13px" height="6px" xmlns="http://www.w3.org/2000/svg">
  <g transform="matrix(1 0 0 1 -1083 -324 )">
    <path d="M 10.348 5.92000000000007  L 10.348 3.55200000000004  L 12.9133333333334 3.55200000000004  L 12.9133333333334 5.92000000000007  L 10.348 5.92000000000007  Z M 5.21733333333332 2.36800000000003  L 5.21733333333332 0  L 7.78266666666668 0  L 7.78266666666668 2.36800000000003  L 5.21733333333332 2.36800000000003  Z M 10.348 2.36800000000003  L 10.348 0  L 12.9133333333334 0  L 12.9133333333334 2.36800000000003  L 10.348 2.36800000000003  Z M 0.0751111111111413 5.92000000000007  L 0.0751111111111413 3.55200000000004  L 2.64044444444451 3.55200000000004  L 2.64044444444451 5.92000000000007  L 0.0751111111111413 5.92000000000007  Z M 5.21733333333332 5.92000000000007  L 5.21733333333332 3.55200000000004  L 7.78266666666668 3.55200000000004  L 7.78266666666668 5.92000000000007  L 5.21733333333332 5.92000000000007  Z M 0.0751111111111413 2.36800000000003  L 0.0751111111111413 0  L 2.64044444444451 0  L 2.64044444444451 2.36800000000003  L 0.0751111111111413 2.36800000000003  Z " fill-rule="nonzero" fill="#d7d7d7" stroke="none" transform="matrix(1 0 0 1 1083 324 )" />
  </g>
</svg>