<?xml version="1.0" encoding="utf-8"?>
<svg version="1.1" xmlns:xlink="http://www.w3.org/1999/xlink" width="20px" height="19px" xmlns="http://www.w3.org/2000/svg">
  <g transform="matrix(1 0 0 1 -1077 -314 )">
    <path d="M 20 1.38927999999975  L 14.9852631578948 1.38927999999975  L 14.9852631578948 0.0395200000001599  L 13.738947368421 0.0395200000001599  L 13.738947368421 1.38927999999975  L 6.26105263157896 1.38927999999975  L 6.26105263157896 0.0395200000001599  L 5.01473684210524 0.0395200000001599  L 5.01473684210524 1.38927999999975  L 0 1.38927999999975  L 0 19  L 20 19  L 20 1.38927999999975  Z M 18.7354385964912 8.15024000000012  L 18.7354385964912 17.7444799999998  L 1.26456140350882 17.7444799999998  L 1.26456140350882 8.15024000000012  L 18.7354385964912 8.15024000000012  Z M 18.7242105263158 6.80047999999996  L 18.7354385964912 7  L 1.26456140350882 7  L 1.26456140350882 2.6052799999998  L 5.00350877192986 2.6052799999998  L 5.00350877192986 4.08879999999979  L 6.24982456140344 4.08879999999979  L 6.24982456140344 2.6052799999998  L 13.738947368421 2.6052799999998  L 13.738947368421 4.08879999999979  L 14.9852631578948 4.08879999999979  L 14.9852631578948 2.6052799999998  L 18.7242105263158 2.6052799999998  L 18.7242105263158 6.80047999999996  Z " fill-rule="nonzero" fill="#d7d7d7" stroke="none" transform="matrix(1 0 0 1 1077 314 )" />
  </g>
</svg>