<?xml version="1.0" encoding="utf-8"?>
<svg version="1.1" xmlns:xlink="http://www.w3.org/1999/xlink" width="183px" height="38px" xmlns="http://www.w3.org/2000/svg">
  <defs>
    <mask fill="white" id="clip6">
      <path d="M 0 34  L 0 4  C 0 1.76000000000022  1.75999999999999 0  4 0  L 35.4285714285714 0  L 179 0  C 181.24 0  183 1.76000000000022  183 4  L 183 34  C 183 36.2399999999998  181.24 38  179 38  L 4 38  C 1.75999999999999 38  0 36.2399999999998  0 34  Z " fill-rule="evenodd" />
    </mask>
  </defs>
  <g transform="matrix(1 0 0 1 -336 -2211 )">
    <path d="M 0 34  L 0 4  C 0 1.76000000000022  1.75999999999999 0  4 0  L 35.4285714285714 0  L 179 0  C 181.24 0  183 1.76000000000022  183 4  L 183 34  C 183 36.2399999999998  181.24 38  179 38  L 4 38  C 1.75999999999999 38  0 36.2399999999998  0 34  Z " fill-rule="nonzero" fill="#ffffff" stroke="none" transform="matrix(1 0 0 1 336 2211 )" />
    <path d="M 0 34  L 0 4  C 0 1.76000000000022  1.75999999999999 0  4 0  L 35.4285714285714 0  L 179 0  C 181.24 0  183 1.76000000000022  183 4  L 183 34  C 183 36.2399999999998  181.24 38  179 38  L 4 38  C 1.75999999999999 38  0 36.2399999999998  0 34  Z " stroke-width="2" stroke="#409eff" fill="none" transform="matrix(1 0 0 1 336 2211 )" mask="url(#clip6)" />
  </g>
</svg>