<?xml version="1.0" encoding="utf-8"?>
<svg version="1.1" xmlns:xlink="http://www.w3.org/1999/xlink" width="36px" height="36px" xmlns="http://www.w3.org/2000/svg">
  <g transform="matrix(1 0 0 1 -1055 -353 )">
    <path d="M 29.2244318181818 16.59375  C 29.3778409090909 16.7471590909091  29.4545454545455 16.9431818181818  29.4545454545455 17.1818181818182  L 29.4545454545455 18.8181818181818  C 29.4545454545455 19.0568181818182  29.3778409090909 19.2528409090909  29.2244318181818 19.40625  C 29.0710227272727 19.5596590909091  28.875 19.6363636363636  28.6363636363636 19.6363636363636  L 19.6363636363636 19.6363636363636  L 19.6363636363636 28.6363636363636  C 19.6363636363636 28.875  19.5596590909091 29.0710227272727  19.40625 29.2244318181818  C 19.2528409090909 29.3778409090909  19.0568181818182 29.4545454545455  18.8181818181818 29.4545454545455  L 17.1818181818182 29.4545454545455  C 16.9431818181818 29.4545454545455  16.7471590909091 29.3778409090909  16.59375 29.2244318181818  C 16.4403409090909 29.0710227272727  16.3636363636364 28.875  16.3636363636364 28.6363636363636  L 16.3636363636364 19.6363636363636  L 7.36363636363636 19.6363636363636  C 7.125 19.6363636363636  6.92897727272727 19.5596590909091  6.77556818181818 19.40625  C 6.62215909090909 19.2528409090909  6.54545454545455 19.0568181818182  6.54545454545455 18.8181818181818  L 6.54545454545455 17.1818181818182  C 6.54545454545455 16.9431818181818  6.62215909090909 16.7471590909091  6.77556818181818 16.59375  C 6.92897727272727 16.4403409090909  7.125 16.3636363636364  7.36363636363636 16.3636363636364  L 16.3636363636364 16.3636363636364  L 16.3636363636364 7.36363636363637  C 16.3636363636364 7.12499999999999  16.4403409090909 6.92897727272727  16.59375 6.77556818181818  C 16.7471590909091 6.62215909090909  16.9431818181818 6.54545454545454  17.1818181818182 6.54545454545454  L 18.8181818181818 6.54545454545454  C 19.0568181818182 6.54545454545454  19.2528409090909 6.62215909090909  19.40625 6.77556818181818  C 19.5596590909091 6.92897727272727  19.6363636363636 7.12499999999999  19.6363636363636 7.36363636363637  L 19.6363636363636 16.3636363636364  L 28.6363636363636 16.3636363636364  C 28.875 16.3636363636364  29.0710227272727 16.4403409090909  29.2244318181818 16.59375  Z M 31.5255681818182 31.5255681818182  C 32.3267045454545 30.7244318181818  32.7272727272727 29.7613636363636  32.7272727272727 28.6363636363636  L 32.7272727272727 7.36363636363637  C 32.7272727272727 6.23863636363637  32.3267045454545 5.27556818181818  31.5255681818182 4.47443181818182  C 30.7244318181818 3.67329545454545  29.7613636363636 3.27272727272727  28.6363636363636 3.27272727272727  L 7.36363636363636 3.27272727272727  C 6.23863636363636 3.27272727272727  5.27556818181818 3.67329545454545  4.47443181818182 4.47443181818182  C 3.67329545454546 5.27556818181818  3.27272727272727 6.23863636363637  3.27272727272727 7.36363636363637  L 3.27272727272727 28.6363636363636  C 3.27272727272727 29.7613636363636  3.67329545454546 30.7244318181818  4.47443181818182 31.5255681818182  C 5.27556818181818 32.3267045454545  6.23863636363636 32.7272727272727  7.36363636363636 32.7272727272727  L 28.6363636363636 32.7272727272727  C 29.7613636363636 32.7272727272727  30.7244318181818 32.3267045454545  31.5255681818182 31.5255681818182  Z M 33.8394886363636 2.16051136363637  C 35.2798295454545 3.60085227272727  36 5.33522727272727  36 7.36363636363637  L 36 28.6363636363636  C 36 30.6647727272727  35.2798295454545 32.3991477272727  33.8394886363636 33.8394886363636  C 32.3991477272727 35.2798295454545  30.6647727272727 36  28.6363636363636 36  L 7.36363636363636 36  C 5.33522727272727 36  3.60085227272727 35.2798295454545  2.16051136363636 33.8394886363636  C 0.720170454545455 32.3991477272727  0 30.6647727272727  0 28.6363636363636  L 0 7.36363636363637  C 0 5.33522727272727  0.720170454545455 3.60085227272727  2.16051136363636 2.16051136363637  C 3.60085227272727 0.720170454545451  5.33522727272727 0  7.36363636363636 0  L 28.6363636363636 0  C 30.6647727272727 0  32.3991477272727 0.720170454545451  33.8394886363636 2.16051136363637  Z " fill-rule="nonzero" fill="#00bdff" stroke="none" transform="matrix(1 0 0 1 1055 353 )" />
  </g>
</svg>