<?xml version="1.0" encoding="utf-8"?>
<svg version="1.1" xmlns:xlink="http://www.w3.org/1999/xlink" width="12px" height="12px" viewBox="2680 1566  12 12" xmlns="http://www.w3.org/2000/svg">
  <path d="M 2686 1566  C 2689.36 1566  2692 1568.64  2692 1572  C 2692 1575.36  2689.36 1578  2686 1578  C 2682.64 1578  2680 1575.36  2680 1572  C 2680 1568.64  2682.64 1566  2686 1566  Z " fill-rule="nonzero" fill="#f0f0f0" stroke="none" />
  <path d="M 2686 1566.5  C 2689.08 1566.5  2691.5 1568.92  2691.5 1572  C 2691.5 1575.08  2689.08 1577.5  2686 1577.5  C 2682.92 1577.5  2680.5 1575.08  2680.5 1572  C 2680.5 1568.92  2682.92 1566.5  2686 1566.5  Z " stroke-width="1" stroke="#797979" fill="none" />
  <path d="M 2686 1575  C 2684.32 1575  2683 1573.68  2683 1572  C 2683 1570.32  2684.32 1569  2686 1569  C 2687.68 1569  2689 1570.32  2689 1572  C 2689 1573.68  2687.68 1575  2686 1575  " fill-rule="nonzero" fill="#797979" stroke="none" />
</svg>