<?xml version="1.0" encoding="utf-8"?>
<svg version="1.1" xmlns:xlink="http://www.w3.org/1999/xlink" width="12px" height="12px" viewBox="2500 1566  12 12" xmlns="http://www.w3.org/2000/svg">
  <path d="M 2506 1566  C 2509.36 1566  2512 1568.64  2512 1572  C 2512 1575.36  2509.36 1578  2506 1578  C 2502.64 1578  2500 1575.36  2500 1572  C 2500 1568.64  2502.64 1566  2506 1566  Z " fill-rule="nonzero" fill="#f0f0f0" stroke="none" />
  <path d="M 2506 1566.5  C 2509.08 1566.5  2511.5 1568.92  2511.5 1572  C 2511.5 1575.08  2509.08 1577.5  2506 1577.5  C 2502.92 1577.5  2500.5 1575.08  2500.5 1572  C 2500.5 1568.92  2502.92 1566.5  2506 1566.5  Z " stroke-width="1" stroke="#797979" fill="none" />
  <path d="M 2506 1575  C 2504.32 1575  2503 1573.68  2503 1572  C 2503 1570.32  2504.32 1569  2506 1569  C 2507.68 1569  2509 1570.32  2509 1572  C 2509 1573.68  2507.68 1575  2506 1575  " fill-rule="nonzero" fill="#797979" stroke="none" />
</svg>