<?xml version="1.0" encoding="utf-8"?>
<svg version="1.1" xmlns:xlink="http://www.w3.org/1999/xlink" width="19px" height="19px" xmlns="http://www.w3.org/2000/svg">
  <g transform="matrix(1 0 0 1 -497 -681 )">
    <path d="M 14.8607421875 11.03193359375  C 15.2791015625 11.03193359375  15.62568359375 10.68330078125  15.62568359375 10.26494140625  L 15.62568359375 8.7330078125  C 15.62568359375 8.31259765625  15.2791015625 7.96806640625  14.8607421875 7.96806640625  L 11.03193359375 7.96806640625  L 11.03193359375 4.14130859375  C 11.03193359375 3.7208984375  10.6853515625 3.3763671875  10.2669921875 3.3763671875  L 8.73505859375 3.3763671875  C 8.3146484375 3.3763671875  7.9701171875 3.72294921875  7.9701171875 4.14130859375  L 7.9701171875 7.9701171875  L 4.14130859375 7.9701171875  C 3.7208984375 7.9701171875  3.3763671875 8.31669921875  3.3763671875 8.73505859375  L 3.3763671875 10.2669921875  C 3.3763671875 10.68740234375  3.72294921875 11.03193359375  4.14130859375 11.03193359375  L 7.9701171875 11.03193359375  L 7.9701171875 14.8607421875  C 7.9701171875 15.28115234375  8.31669921875 15.62568359375  8.73505859375 15.62568359375  L 10.2669921875 15.62568359375  C 10.68740234375 15.62568359375  11.03193359375 15.2791015625  11.03193359375 14.8607421875  L 11.03193359375 11.03193359375  L 14.8607421875 11.03193359375  Z M 15.2421875 0.3125  C 17.1453125 0.3125  18.6875 1.85673828125  18.6875 3.7578125  L 18.6875 15.2421875  C 18.6875 17.1453125  17.14326171875 18.6875  15.2421875 18.6875  L 3.7578125 18.6875  C 1.8546875 18.6875  0.3125 17.14326171875  0.3125 15.2421875  L 0.3125 3.7578125  C 0.3125 1.8546875  1.85673828125 0.3125  3.7578125 0.3125  L 15.2421875 0.3125  Z " fill-rule="nonzero" fill="#000000" stroke="none" transform="matrix(1 0 0 1 497 681 )" />
  </g>
</svg>