<svg t="1582352984985" class="icon" viewBox="0 0 1024 1024" version="1.1" xmlns="http://www.w3.org/2000/svg" p-id="6164" width="200" height="200"><path d="M485.274096 11.616591a39.494801 39.494801 0 0 1 55.950969 0l178.092298 178.165438a39.494801 39.494801 0 0 1-55.804691 55.87783L552.780951 134.928138v660.294568a39.494801 39.494801 0 0 1-79.062741 0V134.928138L362.986489 245.659859a39.348524 39.348524 0 0 1-55.804692 0 39.641078 39.641078 0 0 1-0.073138-55.87783L485.274096 11.616591z m499.243545 647.129635a39.494801 39.494801 0 0 0-39.494802 39.494801V921.60607a23.550604 23.550604 0 0 1-23.550603 23.550604H102.686492a23.550604 23.550604 0 0 1-23.550604-23.550604V698.167889a39.494801 39.494801 0 0 0-78.989602 0v254.741469c0 39.202247 31.888395 70.944365 70.944365 70.944365h882.050564c39.202247 0 70.944365-31.815257 70.944366-70.944365V698.167889a39.494801 39.494801 0 0 0-39.494802-39.421663z" p-id="6165" fill="#1296db"></path></svg>