<?xml version="1.0" encoding="utf-8"?>
<svg version="1.1" xmlns:xlink="http://www.w3.org/1999/xlink" width="70px" height="30px" xmlns="http://www.w3.org/2000/svg">
  <defs>
    <mask fill="white" id="clip19">
      <path d="M 0 27  L 0 3  C 0 1.32000000000005  1.32000000000005 0  3 0  L 67 0  C 68.6799999999999 0  70 1.32000000000005  70 3  L 70 27  C 70 28.6799999999999  68.6799999999999 30  67 30  L 16.4117647058824 30  L 3 30  C 1.32000000000005 30  0 28.6799999999999  0 27  Z " fill-rule="evenodd" />
    </mask>
  </defs>
  <g transform="matrix(1 0 0 1 -1160 -2395 )">
    <path d="M 0 27  L 0 3  C 0 1.32000000000005  1.32000000000005 0  3 0  L 67 0  C 68.6799999999999 0  70 1.32000000000005  70 3  L 70 27  C 70 28.6799999999999  68.6799999999999 30  67 30  L 16.4117647058824 30  L 3 30  C 1.32000000000005 30  0 28.6799999999999  0 27  Z " fill-rule="nonzero" fill="#f9f9f9" stroke="none" transform="matrix(1 0 0 1 1160 2395 )" />
    <path d="M 0 27  L 0 3  C 0 1.32000000000005  1.32000000000005 0  3 0  L 67 0  C 68.6799999999999 0  70 1.32000000000005  70 3  L 70 27  C 70 28.6799999999999  68.6799999999999 30  67 30  L 16.4117647058824 30  L 3 30  C 1.32000000000005 30  0 28.6799999999999  0 27  Z " stroke-width="2" stroke="#e9e9e9" fill="none" transform="matrix(1 0 0 1 1160 2395 )" mask="url(#clip19)" />
  </g>
</svg>