<?xml version="1.0" encoding="utf-8"?>
<svg version="1.1" xmlns:xlink="http://www.w3.org/1999/xlink" width="71px" height="57px" xmlns="http://www.w3.org/2000/svg">
  <g transform="matrix(1 0 0 1 -1456 -617 )">
    <path d="M 1456 617  L 1527 617  L 1527 674  L 1456 674  L 1456 617  " fill-rule="nonzero" fill="#cccccc" stroke="none" />
    <path d="M 1460 621  L 1523 621  L 1523 670  L 1460 670  L 1460 621  " fill-rule="nonzero" fill="#ffffff" stroke="none" />
    <path d="M 1497.195 634.1  C 1494.801 634.1  1492.92 632.219  1492.92 629.825  C 1492.92 627.431  1494.801 625.55  1497.195 625.55  C 1499.589 625.55  1501.47 627.431  1501.47 629.825  C 1501.47 632.219  1499.589 634.1  1497.195 634.1  " fill-rule="nonzero" fill="#cccccc" stroke="none" />
    <path d="M 1462 669  L 1462 643.7  L 1477 632.2  L 1498 646.842253521127  L 1510 639.1  L 1522 646.842253521127  L 1522 669  L 1462 669  " fill-rule="nonzero" fill="#169bd5" stroke="none" />
  </g>
</svg>