<?xml version="1.0" encoding="utf-8"?>
<svg version="1.1" xmlns:xlink="http://www.w3.org/1999/xlink" width="137px" height="108px" xmlns="http://www.w3.org/2000/svg">
  <g transform="matrix(1 0 0 1 -804 -140 )">
    <path d="M 804 140  L 941 140  L 941 248  L 804 248  L 804 140  " fill-rule="nonzero" fill="#cccccc" stroke="none" />
    <path d="M 812 148  L 933 148  L 933 240  L 812 240  L 812 148  " fill-rule="nonzero" fill="#ffffff" stroke="none" />
    <path d="M 883.34 172.4  C 878.804 172.4  875.24 168.836  875.24 164.3  C 875.24 159.764  878.804 156.2  883.34 156.2  C 887.876 156.2  891.44 159.764  891.44 164.3  C 891.44 168.836  887.876 172.4  883.34 172.4  " fill-rule="nonzero" fill="#cccccc" stroke="none" />
    <path d="M 815 238  L 815 190.15  L 844 168.4  L 884.6 196.849635036496  L 907.8 181.45  L 931 196.849635036496  L 931 238  L 815 238  " fill-rule="nonzero" fill="#169bd5" stroke="none" />
  </g>
</svg>