<?xml version="1.0" encoding="utf-8"?>
<svg version="1.1" xmlns:xlink="http://www.w3.org/1999/xlink" width="11px" height="19px" xmlns="http://www.w3.org/2000/svg">
  <g transform="matrix(1 0 0 1 -573 -14 )">
    <path d="M 10.5904537246203 16.6866002782796  L 3.31599540668809 9.49752681542734  L 10.5961816445558 2.31410958661358  C 11.1346061184814 1.78242358700053  11.1346061184814 0.922676013158132  10.5961816445558 0.396646247583533  C 10.0577571706302 -0.135039752029364  9.18711334045174 -0.129383517990888  8.64868886652598 0.396646247583533  L 0.400484159579374 8.53596702889316  C -0.120756554539867 9.05068432639098  -0.132212394410772 9.87649449600246  0.360388720031692 10.4081804956155  L 8.6429609465915 18.6040636173095  C 8.91217318355422 18.869906617116  9.26730421954711 19  9.61670733560552 19  C 9.96611045166458 19  10.3212414876575 18.869906617116  10.5904537246203 18.6040636173095  C 11.1288781985459 18.0723776176965  11.1288781985459 17.2126300438542  10.5904537246203 16.6866002782796  Z " fill-rule="nonzero" fill="#ffffff" stroke="none" transform="matrix(1 0 0 1 573 14 )" />
  </g>
</svg>