<?xml version="1.0" encoding="utf-8"?>
<svg version="1.1" xmlns:xlink="http://www.w3.org/1999/xlink" width="12px" height="12px" viewBox="1228 1525  12 12" xmlns="http://www.w3.org/2000/svg">
  <path d="M 1234 1525  C 1237.36 1525  1240 1527.64  1240 1531  C 1240 1534.36  1237.36 1537  1234 1537  C 1230.64 1537  1228 1534.36  1228 1531  C 1228 1527.64  1230.64 1525  1234 1525  Z " fill-rule="nonzero" fill="#ffffff" stroke="none" />
  <path d="M 1234 1525.5  C 1237.08 1525.5  1239.5 1527.92  1239.5 1531  C 1239.5 1534.08  1237.08 1536.5  1234 1536.5  C 1230.92 1536.5  1228.5 1534.08  1228.5 1531  C 1228.5 1527.92  1230.92 1525.5  1234 1525.5  Z " stroke-width="1" stroke="#797979" fill="none" />
  <path d="M 1234 1534  C 1232.32 1534  1231 1532.68  1231 1531  C 1231 1529.32  1232.32 1528  1234 1528  C 1235.68 1528  1237 1529.32  1237 1531  C 1237 1532.68  1235.68 1534  1234 1534  " fill-rule="nonzero" fill="#797979" stroke="none" />
</svg>