<?xml version="1.0" encoding="utf-8"?>
<svg version="1.1" xmlns:xlink="http://www.w3.org/1999/xlink" width="12px" height="12px" viewBox="1228 1293  12 12" xmlns="http://www.w3.org/2000/svg">
  <path d="M 1234 1293  C 1237.36 1293  1240 1295.64  1240 1299  C 1240 1302.36  1237.36 1305  1234 1305  C 1230.64 1305  1228 1302.36  1228 1299  C 1228 1295.64  1230.64 1293  1234 1293  Z " fill-rule="nonzero" fill="#f0f0f0" stroke="none" />
  <path d="M 1234 1293.5  C 1237.08 1293.5  1239.5 1295.92  1239.5 1299  C 1239.5 1302.08  1237.08 1304.5  1234 1304.5  C 1230.92 1304.5  1228.5 1302.08  1228.5 1299  C 1228.5 1295.92  1230.92 1293.5  1234 1293.5  Z " stroke-width="1" stroke="#797979" fill="none" />
  <path d="M 1234 1302  C 1232.32 1302  1231 1300.68  1231 1299  C 1231 1297.32  1232.32 1296  1234 1296  C 1235.68 1296  1237 1297.32  1237 1299  C 1237 1300.68  1235.68 1302  1234 1302  " fill-rule="nonzero" fill="#797979" stroke="none" />
</svg>