<?xml version="1.0" encoding="utf-8"?>
<svg version="1.1" xmlns:xlink="http://www.w3.org/1999/xlink" width="12px" height="12px" viewBox="1228 1409  12 12" xmlns="http://www.w3.org/2000/svg">
  <path d="M 1234 1409  C 1237.36 1409  1240 1411.64  1240 1415  C 1240 1418.36  1237.36 1421  1234 1421  C 1230.64 1421  1228 1418.36  1228 1415  C 1228 1411.64  1230.64 1409  1234 1409  Z " fill-rule="nonzero" fill="#ffffff" stroke="none" />
  <path d="M 1234 1409.5  C 1237.08 1409.5  1239.5 1411.92  1239.5 1415  C 1239.5 1418.08  1237.08 1420.5  1234 1420.5  C 1230.92 1420.5  1228.5 1418.08  1228.5 1415  C 1228.5 1411.92  1230.92 1409.5  1234 1409.5  Z " stroke-width="1" stroke="#797979" fill="none" />
  <path d="M 1234 1418  C 1232.32 1418  1231 1416.68  1231 1415  C 1231 1413.32  1232.32 1412  1234 1412  C 1235.68 1412  1237 1413.32  1237 1415  C 1237 1416.68  1235.68 1418  1234 1418  " fill-rule="nonzero" fill="#797979" stroke="none" />
</svg>