<?xml version="1.0" encoding="utf-8"?>
<svg version="1.1" xmlns:xlink="http://www.w3.org/1999/xlink" width="12px" height="12px" viewBox="1228 1582  12 12" xmlns="http://www.w3.org/2000/svg">
  <path d="M 1234 1582  C 1237.36 1582  1240 1584.64  1240 1588  C 1240 1591.36  1237.36 1594  1234 1594  C 1230.64 1594  1228 1591.36  1228 1588  C 1228 1584.64  1230.64 1582  1234 1582  Z " fill-rule="nonzero" fill="#ffffff" stroke="none" />
  <path d="M 1234 1582.5  C 1237.08 1582.5  1239.5 1584.92  1239.5 1588  C 1239.5 1591.08  1237.08 1593.5  1234 1593.5  C 1230.92 1593.5  1228.5 1591.08  1228.5 1588  C 1228.5 1584.92  1230.92 1582.5  1234 1582.5  Z " stroke-width="1" stroke="#797979" fill="none" />
  <path d="M 1234 1591  C 1232.32 1591  1231 1589.68  1231 1588  C 1231 1586.32  1232.32 1585  1234 1585  C 1235.68 1585  1237 1586.32  1237 1588  C 1237 1589.68  1235.68 1591  1234 1591  " fill-rule="nonzero" fill="#797979" stroke="none" />
</svg>