<?xml version="1.0" encoding="utf-8"?>
<svg version="1.1" xmlns:xlink="http://www.w3.org/1999/xlink" width="12px" height="12px" viewBox="1227 1737  12 12" xmlns="http://www.w3.org/2000/svg">
  <path d="M 1233 1737  C 1236.36 1737  1239 1739.64  1239 1743  C 1239 1746.36  1236.36 1749  1233 1749  C 1229.64 1749  1227 1746.36  1227 1743  C 1227 1739.64  1229.64 1737  1233 1737  Z " fill-rule="nonzero" fill="#ffffff" stroke="none" />
  <path d="M 1233 1737.5  C 1236.08 1737.5  1238.5 1739.92  1238.5 1743  C 1238.5 1746.08  1236.08 1748.5  1233 1748.5  C 1229.92 1748.5  1227.5 1746.08  1227.5 1743  C 1227.5 1739.92  1229.92 1737.5  1233 1737.5  Z " stroke-width="1" stroke="#797979" fill="none" />
  <path d="M 1233 1746  C 1231.32 1746  1230 1744.68  1230 1743  C 1230 1741.32  1231.32 1740  1233 1740  C 1234.68 1740  1236 1741.32  1236 1743  C 1236 1744.68  1234.68 1746  1233 1746  " fill-rule="nonzero" fill="#797979" stroke="none" />
</svg>