<?xml version="1.0" encoding="utf-8"?>
<svg version="1.1" xmlns:xlink="http://www.w3.org/1999/xlink" width="12px" height="12px" viewBox="1228 1697  12 12" xmlns="http://www.w3.org/2000/svg">
  <path d="M 1234 1697  C 1237.36 1697  1240 1699.64  1240 1703  C 1240 1706.36  1237.36 1709  1234 1709  C 1230.64 1709  1228 1706.36  1228 1703  C 1228 1699.64  1230.64 1697  1234 1697  Z " fill-rule="nonzero" fill="#ffffff" stroke="none" />
  <path d="M 1234 1697.5  C 1237.08 1697.5  1239.5 1699.92  1239.5 1703  C 1239.5 1706.08  1237.08 1708.5  1234 1708.5  C 1230.92 1708.5  1228.5 1706.08  1228.5 1703  C 1228.5 1699.92  1230.92 1697.5  1234 1697.5  Z " stroke-width="1" stroke="#797979" fill="none" />
  <path d="M 1234 1706  C 1232.32 1706  1231 1704.68  1231 1703  C 1231 1701.32  1232.32 1700  1234 1700  C 1235.68 1700  1237 1701.32  1237 1703  C 1237 1704.68  1235.68 1706  1234 1706  " fill-rule="nonzero" fill="#797979" stroke="none" />
</svg>