<?xml version="1.0" encoding="utf-8"?>
<svg version="1.1" xmlns:xlink="http://www.w3.org/1999/xlink" width="12px" height="12px" viewBox="173 2064  12 12" xmlns="http://www.w3.org/2000/svg">
  <path d="M 179 2064  C 182.36 2064  185 2066.64  185 2070  C 185 2073.36  182.36 2076  179 2076  C 175.64 2076  173 2073.36  173 2070  C 173 2066.64  175.64 2064  179 2064  Z " fill-rule="nonzero" fill="#ffffff" stroke="none" />
  <path d="M 179 2064.5  C 182.08 2064.5  184.5 2066.92  184.5 2070  C 184.5 2073.08  182.08 2075.5  179 2075.5  C 175.92 2075.5  173.5 2073.08  173.5 2070  C 173.5 2066.92  175.92 2064.5  179 2064.5  Z " stroke-width="1" stroke="#797979" fill="none" />
  <path d="M 179 2073  C 177.32 2073  176 2071.68  176 2070  C 176 2068.32  177.32 2067  179 2067  C 180.68 2067  182 2068.32  182 2070  C 182 2071.68  180.68 2073  179 2073  " fill-rule="nonzero" fill="#797979" stroke="none" />
</svg>