<?xml version="1.0" encoding="utf-8"?>
<svg version="1.1" xmlns:xlink="http://www.w3.org/1999/xlink" width="12px" height="12px" viewBox="173 2120  12 12" xmlns="http://www.w3.org/2000/svg">
  <path d="M 179 2120  C 182.36 2120  185 2122.64  185 2126  C 185 2129.36  182.36 2132  179 2132  C 175.64 2132  173 2129.36  173 2126  C 173 2122.64  175.64 2120  179 2120  Z " fill-rule="nonzero" fill="#f0f0f0" stroke="none" />
  <path d="M 179 2120.5  C 182.08 2120.5  184.5 2122.92  184.5 2126  C 184.5 2129.08  182.08 2131.5  179 2131.5  C 175.92 2131.5  173.5 2129.08  173.5 2126  C 173.5 2122.92  175.92 2120.5  179 2120.5  Z " stroke-width="1" stroke="#797979" fill="none" />
  <path d="M 179 2129  C 177.32 2129  176 2127.68  176 2126  C 176 2124.32  177.32 2123  179 2123  C 180.68 2123  182 2124.32  182 2126  C 182 2127.68  180.68 2129  179 2129  " fill-rule="nonzero" fill="#797979" stroke="none" />
</svg>