<?xml version="1.0" encoding="utf-8"?>
<svg version="1.1" xmlns:xlink="http://www.w3.org/1999/xlink" width="12px" height="12px" viewBox="173 2175  12 12" xmlns="http://www.w3.org/2000/svg">
  <path d="M 179 2175  C 182.36 2175  185 2177.64  185 2181  C 185 2184.36  182.36 2187  179 2187  C 175.64 2187  173 2184.36  173 2181  C 173 2177.64  175.64 2175  179 2175  Z " fill-rule="nonzero" fill="#f0f0f0" stroke="none" />
  <path d="M 179 2175.5  C 182.08 2175.5  184.5 2177.92  184.5 2181  C 184.5 2184.08  182.08 2186.5  179 2186.5  C 175.92 2186.5  173.5 2184.08  173.5 2181  C 173.5 2177.92  175.92 2175.5  179 2175.5  Z " stroke-width="1" stroke="#797979" fill="none" />
  <path d="M 179 2184  C 177.32 2184  176 2182.68  176 2181  C 176 2179.32  177.32 2178  179 2178  C 180.68 2178  182 2179.32  182 2181  C 182 2182.68  180.68 2184  179 2184  " fill-rule="nonzero" fill="#797979" stroke="none" />
</svg>