<?xml version="1.0" encoding="utf-8"?>
<svg version="1.1" xmlns:xlink="http://www.w3.org/1999/xlink" width="12px" height="12px" viewBox="173 2398  12 12" xmlns="http://www.w3.org/2000/svg">
  <path d="M 179 2398  C 182.36 2398  185 2400.64  185 2404  C 185 2407.36  182.36 2410  179 2410  C 175.64 2410  173 2407.36  173 2404  C 173 2400.64  175.64 2398  179 2398  Z " fill-rule="nonzero" fill="#ffffff" stroke="none" />
  <path d="M 179 2398.5  C 182.08 2398.5  184.5 2400.92  184.5 2404  C 184.5 2407.08  182.08 2409.5  179 2409.5  C 175.92 2409.5  173.5 2407.08  173.5 2404  C 173.5 2400.92  175.92 2398.5  179 2398.5  Z " stroke-width="1" stroke="#797979" fill="none" />
  <path d="M 179 2407  C 177.32 2407  176 2405.68  176 2404  C 176 2402.32  177.32 2401  179 2401  C 180.68 2401  182 2402.32  182 2404  C 182 2405.68  180.68 2407  179 2407  " fill-rule="nonzero" fill="#797979" stroke="none" />
</svg>