<?xml version="1.0" encoding="utf-8"?>
<svg version="1.1" xmlns:xlink="http://www.w3.org/1999/xlink" width="12px" height="12px" viewBox="173 2342  12 12" xmlns="http://www.w3.org/2000/svg">
  <path d="M 179 2342  C 182.36 2342  185 2344.64  185 2348  C 185 2351.36  182.36 2354  179 2354  C 175.64 2354  173 2351.36  173 2348  C 173 2344.64  175.64 2342  179 2342  Z " fill-rule="nonzero" fill="#ffffff" stroke="none" />
  <path d="M 179 2342.5  C 182.08 2342.5  184.5 2344.92  184.5 2348  C 184.5 2351.08  182.08 2353.5  179 2353.5  C 175.92 2353.5  173.5 2351.08  173.5 2348  C 173.5 2344.92  175.92 2342.5  179 2342.5  Z " stroke-width="1" stroke="#797979" fill="none" />
  <path d="M 179 2351  C 177.32 2351  176 2349.68  176 2348  C 176 2346.32  177.32 2345  179 2345  C 180.68 2345  182 2346.32  182 2348  C 182 2349.68  180.68 2351  179 2351  " fill-rule="nonzero" fill="#797979" stroke="none" />
</svg>