<?xml version="1.0" encoding="utf-8"?>
<svg version="1.1" xmlns:xlink="http://www.w3.org/1999/xlink" width="12px" height="12px" viewBox="173 2287  12 12" xmlns="http://www.w3.org/2000/svg">
  <path d="M 179 2287  C 182.36 2287  185 2289.64  185 2293  C 185 2296.36  182.36 2299  179 2299  C 175.64 2299  173 2296.36  173 2293  C 173 2289.64  175.64 2287  179 2287  Z " fill-rule="nonzero" fill="#ffffff" stroke="none" />
  <path d="M 179 2287.5  C 182.08 2287.5  184.5 2289.92  184.5 2293  C 184.5 2296.08  182.08 2298.5  179 2298.5  C 175.92 2298.5  173.5 2296.08  173.5 2293  C 173.5 2289.92  175.92 2287.5  179 2287.5  Z " stroke-width="1" stroke="#797979" fill="none" />
  <path d="M 179 2296  C 177.32 2296  176 2294.68  176 2293  C 176 2291.32  177.32 2290  179 2290  C 180.68 2290  182 2291.32  182 2293  C 182 2294.68  180.68 2296  179 2296  " fill-rule="nonzero" fill="#797979" stroke="none" />
</svg>