<?xml version="1.0" encoding="utf-8"?>
<svg version="1.1" xmlns:xlink="http://www.w3.org/1999/xlink" width="12px" height="12px" viewBox="1509 785  12 12" xmlns="http://www.w3.org/2000/svg">
  <path d="M 1515 785  C 1518.36 785  1521 787.64  1521 791  C 1521 794.36  1518.36 797  1515 797  C 1511.64 797  1509 794.36  1509 791  C 1509 787.64  1511.64 785  1515 785  Z " fill-rule="nonzero" fill="#f0f0f0" stroke="none" />
  <path d="M 1515 785.5  C 1518.08 785.5  1520.5 787.92  1520.5 791  C 1520.5 794.08  1518.08 796.5  1515 796.5  C 1511.92 796.5  1509.5 794.08  1509.5 791  C 1509.5 787.92  1511.92 785.5  1515 785.5  Z " stroke-width="1" stroke="#797979" fill="none" />
  <path d="M 1515 794  C 1513.32 794  1512 792.68  1512 791  C 1512 789.32  1513.32 788  1515 788  C 1516.68 788  1518 789.32  1518 791  C 1518 792.68  1516.68 794  1515 794  " fill-rule="nonzero" fill="#797979" stroke="none" />
</svg>