<?xml version="1.0" encoding="utf-8"?>
<svg version="1.1" xmlns:xlink="http://www.w3.org/1999/xlink" width="12px" height="12px" viewBox="1509 729  12 12" xmlns="http://www.w3.org/2000/svg">
  <path d="M 1515 729  C 1518.36 729  1521 731.64  1521 735  C 1521 738.36  1518.36 741  1515 741  C 1511.64 741  1509 738.36  1509 735  C 1509 731.64  1511.64 729  1515 729  Z " fill-rule="nonzero" fill="#ffffff" stroke="none" />
  <path d="M 1515 729.5  C 1518.08 729.5  1520.5 731.92  1520.5 735  C 1520.5 738.08  1518.08 740.5  1515 740.5  C 1511.92 740.5  1509.5 738.08  1509.5 735  C 1509.5 731.92  1511.92 729.5  1515 729.5  Z " stroke-width="1" stroke="#797979" fill="none" />
  <path d="M 1515 738  C 1513.32 738  1512 736.68  1512 735  C 1512 733.32  1513.32 732  1515 732  C 1516.68 732  1518 733.32  1518 735  C 1518 736.68  1516.68 738  1515 738  " fill-rule="nonzero" fill="#797979" stroke="none" />
</svg>