<?xml version="1.0" encoding="utf-8"?>
<svg version="1.1" xmlns:xlink="http://www.w3.org/1999/xlink" width="300px" height="170px" xmlns="http://www.w3.org/2000/svg">
  <g transform="matrix(1 0 0 1 -181 -245 )">
    <path d="M 181 245  L 481 245  L 481 415  L 181 415  L 181 245  " fill-rule="nonzero" fill="#cccccc" stroke="none" />
    <path d="M 193 257  L 469 257  L 469 403  L 193 403  L 193 257  " fill-rule="nonzero" fill="#ffffff" stroke="none" />
    <path d="M 349.75 296  C 342.61 296  337 290.39  337 283.25  C 337 276.11  342.61 270.5  349.75 270.5  C 356.89 270.5  362.5 276.11  362.5 283.25  C 362.5 290.39  356.89 296  349.75 296  " fill-rule="nonzero" fill="#cccccc" stroke="none" />
    <path d="M 198 399  L 198 323.65  L 264.75 289.4  L 358.2 352.42  L 411.6 309.95  L 465 352.42  L 465 399  L 198 399  " fill-rule="nonzero" fill="#169bd5" stroke="none" />
  </g>
</svg>