<?xml version="1.0" encoding="utf-8"?>
<svg version="1.1" xmlns:xlink="http://www.w3.org/1999/xlink" width="61px" height="32px" xmlns="http://www.w3.org/2000/svg">
  <defs>
    <mask fill="white" id="clip72">
      <path d="M 0 28  L 0 4  C 0 1.75999999999999  1.78933333333332 0  4.06666666666667 0  L 26.9174603174603 0  L 56.9333333333333 0  C 59.2106666666667 0  61 1.75999999999999  61 4  L 61 28  C 61 30.24  59.2106666666667 32  56.9333333333333 32  L 4.06666666666667 32  C 1.78933333333332 32  0 30.24  0 28  Z " fill-rule="evenodd" />
    </mask>
  </defs>
  <g transform="matrix(1 0 0 1 -214 -191 )">
    <path d="M 0 28  L 0 4  C 0 1.75999999999999  1.78933333333332 0  4.06666666666667 0  L 26.9174603174603 0  L 56.9333333333333 0  C 59.2106666666667 0  61 1.75999999999999  61 4  L 61 28  C 61 30.24  59.2106666666667 32  56.9333333333333 32  L 4.06666666666667 32  C 1.78933333333332 32  0 30.24  0 28  Z " fill-rule="nonzero" fill="#ffffff" stroke="none" transform="matrix(1 0 0 1 214 191 )" />
    <path d="M 0 28  L 0 4  C 0 1.75999999999999  1.78933333333332 0  4.06666666666667 0  L 26.9174603174603 0  L 56.9333333333333 0  C 59.2106666666667 0  61 1.75999999999999  61 4  L 61 28  C 61 30.24  59.2106666666667 32  56.9333333333333 32  L 4.06666666666667 32  C 1.78933333333332 32  0 30.24  0 28  Z " stroke-width="2" stroke="#d9d9d9" fill="none" transform="matrix(1 0 0 1 214 191 )" mask="url(#clip72)" />
  </g>
</svg>