<?xml version="1.0" encoding="utf-8"?>
<svg version="1.1" xmlns:xlink="http://www.w3.org/1999/xlink" width="164px" height="109px" xmlns="http://www.w3.org/2000/svg">
  <g transform="matrix(1 0 0 1 -2700 -220 )">
    <path d="M 164 29.7857638888886  C 164 23.1625000000002  158.490625 18.1666666666663  150.973958333333 19  L 127.697916666667 19  C 125.733333333333 18.1666666666663  123.896875 17.4097222222221  122.572916666667 16.122916666667  C 110.44375 4.08749999999978  105.873958333333 0  100.919791666667 0  L 64.4041666666667 0  C 59.4072916666667 0  54.4958333333333 4.08749999999978  42.3239583333333 16.1607638888886  C 41.0427083333333 17.4475694444449  39.1635416666667 18.1666666666663  37.2416666666667 18.1666666666663  L 35.490625 18.1666666666663  L 35.490625 15.1388888888884  C 35.490625 13.4736111111112  33.953125 12.1111111111116  32.0739583333333 13  L 20.9697916666667 13  C 19.090625 12.1111111111116  17.553125 13.4736111111112  17.553125 15.1388888888884  L 17.553125 18.1666666666663  L 14.35 18.1666666666663  C 6.790625 18.1666666666663  0 23.1625000000002  0 29.7857638888886  L 0 96.3968750000002  C 0 103.020138888889  6.790625 109  14.3072916666667 109  L 150.973958333333 109  C 158.490625 109  164 103.020138888889  164 96.3968750000002  L 164 29.7857638888886  Z M 118.472916666667 63.2048611111116  C 117.61875 79.8197916666667  102.457291666667 93.2555555555551  83.7083333333333 94.0125000000004  C 62.2260416666667 94.8829861111107  44.5447916666667 79.2142361111114  45.5270833333333 60.1770833333337  C 46.38125 43.5621527777775  61.5427083333333 30.1263888888891  80.2916666666667 29.3694444444449  C 101.773958333333 28.4989583333335  119.455208333333 44.1677083333328  118.472916666667 63.2048611111116  Z M 128.552083333333 35.1979166666663  C 128.552083333333 37.9229166666665  126.075 40.1180555555558  123 40.1180555555558  C 119.925 40.1180555555558  117.447916666667 37.9229166666665  117.447916666667 35.1979166666663  C 117.447916666667 32.4729166666672  119.925 30.2777777777779  123 30.2777777777779  C 126.075 30.2777777777779  128.552083333333 32.4729166666672  128.552083333333 35.1979166666663  Z " fill-rule="nonzero" fill="#bbb7b7" stroke="none" transform="matrix(1 0 0 1 2700 220 )" />
  </g>
</svg>