<?xml version="1.0" encoding="utf-8"?>
<svg version="1.1" xmlns:xlink="http://www.w3.org/1999/xlink" width="43px" height="38px" xmlns="http://www.w3.org/2000/svg">
  <g transform="matrix(1 0 0 1 -2097 -529 )">
    <path d="M 18.151123046875 29.130859375  C 18.592041015625 28.4958767361111  18.8125 27.7248263888889  18.8125 26.8177083333333  C 18.8125 25.9270833333333  18.760009765625 25.0983072916667  18.655029296875 24.3313802083333  C 18.550048828125 23.564453125  18.3785807291667 22.822265625  18.140625 22.1048177083333  C 17.9026692708333 21.3873697916667  17.5457356770833 20.8224826388889  17.06982421875 20.41015625  C 16.5939127604167 19.9978298611111  16.0270182291667 19.7916666666667  15.369140625 19.7916666666667  C 14.4733072916667 20.8472222222222  13.3815104166667 21.375  12.09375 21.375  C 10.8059895833333 21.375  9.71419270833333 20.8472222222222  8.818359375 19.7916666666667  C 8.16048177083333 19.7916666666667  7.59358723958333 19.9978298611111  7.11767578125 20.41015625  C 6.64176432291667 20.8224826388889  6.28483072916667 21.3873697916667  6.046875 22.1048177083333  C 5.80891927083333 22.822265625  5.637451171875 23.564453125  5.532470703125 24.3313802083333  C 5.427490234375 25.0983072916667  5.375 25.9270833333333  5.375 26.8177083333333  C 5.375 27.7248263888889  5.595458984375 28.4958767361111  6.036376953125 29.130859375  C 6.477294921875 29.7658420138889  7.00569661458333 30.0833333333333  7.62158203125 30.0833333333333  L 16.56591796875 30.0833333333333  C 17.1818033854167 30.0833333333333  17.710205078125 29.7658420138889  18.151123046875 29.130859375  Z M 14.94921875 19.1979166666667  C 15.7330729166667 18.2743055555556  16.125 17.1527777777778  16.125 15.8333333333333  C 16.125 14.5138888888889  15.7330729166667 13.3923611111111  14.94921875 12.46875  C 14.1653645833333 11.5451388888889  13.2135416666667 11.0833333333333  12.09375 11.0833333333333  C 10.9739583333333 11.0833333333333  10.0221354166667 11.5451388888889  9.23828125 12.46875  C 8.45442708333333 13.3923611111111  8.0625 14.5138888888889  8.0625 15.8333333333333  C 8.0625 17.1527777777778  8.45442708333333 18.2743055555556  9.23828125 19.1979166666667  C 10.0221354166667 20.1215277777778  10.9739583333333 20.5833333333333  12.09375 20.5833333333333  C 13.2135416666667 20.5833333333333  14.1653645833333 20.1215277777778  14.94921875 19.1979166666667  Z M 37.43603515625 28.27734375  C 37.56201171875 28.12890625  37.625 27.9392361111111  37.625 27.7083333333333  L 37.625 26.125  C 37.625 25.8940972222222  37.56201171875 25.7044270833333  37.43603515625 25.5559895833333  C 37.31005859375 25.4075520833333  37.1490885416667 25.3333333333333  36.953125 25  L 22.171875 25  C 21.9759114583333 25.3333333333333  21.81494140625 25.4075520833333  21.68896484375 25.5559895833333  C 21.56298828125 25.7044270833333  21.5 25.8940972222222  21.5 26.125  L 21.5 27.7083333333333  C 21.5 27.9392361111111  21.56298828125 28.12890625  21.68896484375 28.27734375  C 21.81494140625 28.42578125  21.9759114583333 28.5  22.171875 28  L 36.953125 28  C 37.1490885416667 28.5  37.31005859375 28.42578125  37.43603515625 28.27734375  Z M 29.37353515625 21.9440104166667  C 29.49951171875 21.7955729166667  29.5625 21.6059027777778  29.5625 21.375  L 29.5625 19.7916666666667  C 29.5625 19.5607638888889  29.49951171875 19.37109375  29.37353515625 19.22265625  C 29.24755859375 19.07421875  29.0865885416667 19  28.890625 19  L 22.171875 19  C 21.9759114583333 19  21.81494140625 19.07421875  21.68896484375 19.22265625  C 21.56298828125 19.37109375  21.5 19.5607638888889  21.5 19.7916666666667  L 21.5 21.375  C 21.5 21.6059027777778  21.56298828125 21.7955729166667  21.68896484375 21.9440104166667  C 21.81494140625 22.0924479166667  21.9759114583333 22.1666666666667  22.171875 22.1666666666667  L 28.890625 22.1666666666667  C 29.0865885416667 22.1666666666667  29.24755859375 22.0924479166667  29.37353515625 21.9440104166667  Z M 37.43603515625 21.9440104166667  C 37.56201171875 21.7955729166667  37.625 21.6059027777778  37.625 21.375  L 37.625 19.7916666666667  C 37.625 19.5607638888889  37.56201171875 19.37109375  37.43603515625 19.22265625  C 37.31005859375 19.07421875  37.1490885416667 19  36.953125 19  L 32.921875 19  C 32.7259114583333 19  32.56494140625 19.07421875  32.43896484375 19.22265625  C 32.31298828125 19.37109375  32.25 19.5607638888889  32.25 19.7916666666667  L 32.25 21.375  C 32.25 21.6059027777778  32.31298828125 21.7955729166667  32.43896484375 21.9440104166667  C 32.56494140625 22.0924479166667  32.7259114583333 22.1666666666667  32.921875 22.1666666666667  L 36.953125 22.1666666666667  C 37.1490885416667 22.1666666666667  37.31005859375 22.0924479166667  37.43603515625 21.9440104166667  Z M 37.43603515625 15.6106770833333  C 37.56201171875 15.4622395833333  37.625 15.2725694444444  37.625 15.0416666666667  L 37.625 13.4583333333333  C 37.625 13.2274305555556  37.56201171875 13.0377604166667  37.43603515625 12.8893229166667  C 37.31005859375 12.7408854166667  37.1490885416667 12.6666666666667  36.953125 13  L 22.171875 13  C 21.9759114583333 12.6666666666667  21.81494140625 12.7408854166667  21.68896484375 12.8893229166667  C 21.56298828125 13.0377604166667  21.5 13.2274305555556  21.5 13.4583333333333  L 21.5 15.0416666666667  C 21.5 15.2725694444444  21.56298828125 15.4622395833333  21.68896484375 15.6106770833333  C 21.81494140625 15.7591145833333  21.9759114583333 15.8333333333333  22.171875 16  L 36.953125 16  C 37.1490885416667 15.8333333333333  37.31005859375 15.7591145833333  37.43603515625 15.6106770833333  Z M 2.6875 3.95833333333333  L 2.6875 7  L 40.3125 7  L 40.3125 3.95833333333333  C 40.3125 3.72743055555555  40.24951171875 3.53776041666667  40.12353515625 3.38932291666667  C 39.99755859375 3.24088541666667  39.8365885416667 3.16666666666667  39.640625 3.16666666666667  L 3.359375 3.16666666666667  C 3.16341145833333 3.16666666666667  3.00244140625 3.24088541666667  2.87646484375 3.38932291666667  C 2.75048828125 3.53776041666667  2.6875 3.72743055555555  2.6875 3.95833333333333  Z M 42.01318359375 1.16276041666667  C 42.6710611979167 1.93793402777778  43 2.86979166666667  43 3.95833333333333  L 43 34.0416666666667  C 43 35.1302083333333  42.6710611979167 36.0620659722222  42.01318359375 36.8372395833333  C 41.3553059895833 37.6124131944444  40.564453125 38  39.640625 38  L 3.359375 38  C 2.435546875 38  1.64469401041667 37.6124131944444  0.98681640625 36.8372395833333  C 0.328938802083333 36.0620659722222  0 35.1302083333333  0 34.0416666666667  L 0 3.95833333333333  C 0 2.86979166666667  0.328938802083333 1.93793402777778  0.98681640625 1.16276041666667  C 1.64469401041667 0.387586805555552  2.435546875 0  3.359375 0  L 39.640625 0  C 40.564453125 0  41.3553059895833 0.387586805555552  42.01318359375 1.16276041666667  Z " fill-rule="nonzero" fill="#d81e06" stroke="none" transform="matrix(1 0 0 1 2097 529 )" />
  </g>
</svg>