<?xml version="1.0" encoding="utf-8"?>
<svg version="1.1" xmlns:xlink="http://www.w3.org/1999/xlink" width="36px" height="37px" xmlns="http://www.w3.org/2000/svg">
  <g transform="matrix(1 0 0 1 -2352 -440 )">
    <path d="M 25.0745192307692 28.0700334821429  C 25.6802884615385 27.4024367559524  25.9831730769231 26.5662202380952  25.9831730769231 25.5613839285714  C 25.9831730769231 24.7767857142857  25.9435096153846 24.0403645833333  25.8641826923077 23.3521205357143  C 25.7848557692308 22.6638764880952  25.6334134615385 21.9721912202381  25.4098557692308 21.2770647321429  C 25.1862980769231 20.5819382440476  24.9014423076923 19.9900483630952  24.5552884615385 19.5013950892857  C 24.2091346153846 19.0127418154762  23.7475961538462 18.6135602678571  23.1706730769231 18.3038504464286  C 22.59375 17.994140625  21.9375 17.8392857142857  21.2019230769231 17.8392857142857  C 21.1153846153846 17.8943452380952  20.8737980769231 18.0354352678571  20.4771634615385 18.2625558035714  C 20.0805288461538 18.4896763392857  19.7740384615385 18.6582961309524  19.5576923076923 18.7684151785714  C 19.3413461538462 18.8785342261905  19.0492788461538 19.0161830357143  18.6814903846154 19.1813616071429  C 18.3137019230769 19.3465401785714  17.9603365384615 19.4635416666667  17.6213942307692 19.5323660714286  C 17.2824519230769 19.6011904761905  16.9471153846154 19.6356026785714  16.6153846153846 19.6356026785714  C 16.2836538461538 19.6356026785714  15.9483173076923 19.6011904761905  15.609375 19.5323660714286  C 15.2704326923077 19.4635416666667  14.9170673076923 19.3465401785714  14.5492788461538 19.1813616071429  C 14.1814903846154 19.0161830357143  13.8894230769231 18.8785342261905  13.6730769230769 18.7684151785714  C 13.4567307692308 18.6582961309524  13.1502403846154 18.4896763392857  12.7536057692308 18.2625558035714  C 12.3569711538462 18.0354352678571  12.1153846153846 17.8943452380952  12.0288461538462 17.8392857142857  C 11.2932692307692 17.8392857142857  10.6370192307692 17.994140625  10.0600961538462 18.3038504464286  C 9.48317307692308 18.6135602678571  9.02163461538462 19.0127418154762  8.67548076923077 19.5013950892857  C 8.32932692307692 19.9900483630952  8.04447115384616 20.5819382440476  7.82091346153846 21.2770647321429  C 7.59735576923077 21.9721912202381  7.44591346153846 22.6638764880952  7.36658653846154 23.3521205357143  C 7.28725961538462 24.0403645833333  7.24759615384615 24.7767857142857  7.24759615384615 25.5613839285714  C 7.24759615384615 26.5662202380952  7.55048076923077 27.4024367559524  8.15625 28.0700334821429  C 8.76201923076923 28.7376302083333  9.50480769230769 29.0714285714286  10.3846153846154 29  L 22.8461538461538 29  C 23.7259615384615 29.0714285714286  24.46875 28.7376302083333  25.0745192307692 28.0700334821429  Z M 20.5853365384615 17.0753348214286  C 21.6887019230769 16.0292038690476  22.2403846153846 14.7697172619048  22.2403846153846 13.296875  C 22.2403846153846 11.8102678571429  21.6887019230769 10.5438988095238  20.5853365384615 9.49776785714286  C 19.4819711538462 8.4516369047619  18.1586538461538 7.92857142857143  16.6153846153846 7.92857142857143  C 15.0721153846154 7.92857142857143  13.7487980769231 8.4516369047619  12.6454326923077 9.49776785714286  C 11.5420673076923 10.5438988095238  10.9903846153846 11.8102678571429  10.9903846153846 13.296875  C 10.9903846153846 14.7697172619048  11.5420673076923 16.0292038690476  12.6454326923077 17.0753348214286  C 13.7487980769231 18.1214657738095  15.0721153846154 18.64453125  16.6153846153846 18.64453125  C 18.1586538461538 18.64453125  19.4819711538462 18.1214657738095  20.5853365384615 17.0753348214286  Z M 35.8052884615385 23.9715401785714  C 35.9350961538462 24.0954241071429  36 24.2537202380952  36 24.4464285714286  L 36 28.4107142857143  C 36 28.6034226190476  35.9350961538462 28.76171875  35.8052884615385 28.8856026785714  C 35.6754807692308 29.0094866071429  35.5096153846154 29.0714285714286  35.3076923076923 29.0714285714286  L 33.2307692307692 29.0714285714286  L 33.2307692307692 33.6964285714286  C 33.2307692307692 34.6049107142857  32.8918269230769 35.3826264880952  32.2139423076923 36.0295758928571  C 31.5360576923077 36.676525297619  30.7211538461538 37  29.7692307692308 37  L 3.46153846153846 37  C 2.50961538461538 37  1.69471153846154 36.676525297619  1.01682692307692 36.0295758928571  C 0.338942307692308 35.3826264880952  0 34.6049107142857  0 33.6964285714286  L 0 3.30357142857143  C 0 2.39508928571429  0.338942307692308 1.61737351190476  1.01682692307692 0.970424107142858  C 1.69471153846154 0.323474702380953  2.50961538461538 0  3.46153846153846 0  L 29.7692307692308 0  C 30.7211538461538 0  31.5360576923077 0.323474702380953  32.2139423076923 0.970424107142858  C 32.8918269230769 1.61737351190476  33.2307692307692 2.39508928571429  33.2307692307692 3.30357142857143  L 33.2307692307692 7.92857142857143  L 35.3076923076923 7.92857142857143  C 35.5096153846154 7.92857142857143  35.6754807692308 7.99051339285714  35.8052884615385 8.11439732142857  C 35.9350961538462 8.23828125  36 8.39657738095238  36 8.58928571428571  L 36 12.5535714285714  C 36 12.7462797619048  35.9350961538462 12.9045758928571  35.8052884615385 13.0284598214286  C 35.6754807692308 13.15234375  35.5096153846154 13.2142857142857  35.3076923076923 13.2142857142857  L 33.2307692307692 13.2142857142857  L 33.2307692307692 15.8571428571429  L 35.3076923076923 15.8571428571429  C 35.5096153846154 15.8571428571429  35.6754807692308 15.9190848214286  35.8052884615385 16.04296875  C 35.9350961538462 16.1668526785714  36 16.3251488095238  36 16.5178571428571  L 36 20.4821428571429  C 36 20.6748511904762  35.9350961538462 20.8331473214286  35.8052884615385 20.95703125  C 35.6754807692308 21.0809151785714  35.5096153846154 21.1428571428571  35.3076923076923 21.1428571428571  L 33.2307692307692 21.1428571428571  L 33.2307692307692 23.7857142857143  L 35.3076923076923 23.7857142857143  C 35.5096153846154 23.7857142857143  35.6754807692308 23.84765625  35.8052884615385 23.9715401785714  Z " fill-rule="nonzero" fill="#c4210b" stroke="none" transform="matrix(1 0 0 1 2352 440 )" />
  </g>
</svg>