<?xml version="1.0" encoding="utf-8"?>
<svg version="1.1" xmlns:xlink="http://www.w3.org/1999/xlink" width="30px" height="39px" xmlns="http://www.w3.org/2000/svg">
  <g transform="matrix(1 0 0 1 -2277 -440 )">
    <path d="M 23.7890625 24.8102678571429  C 23.9296875 25.59375  24 26.4497767857143  24 27.3783482142857  C 24 28.3069196428571  23.7109375 29.0831473214286  23.1328125 29.70703125  C 22.5546875 30.3309151785714  21.84375 30.6428571428571  21 30  L 9 30  C 8.15625 30.6428571428571  7.4453125 30.3309151785714  6.8671875 29.70703125  C 6.2890625 29.0831473214286  6 28.3069196428571  6 27.3783482142857  C 6 26.4497767857143  6.0703125 25.59375  6.2109375 24.8102678571429  C 6.3515625 24.0267857142857  6.58203125 23.2723214285714  6.90234375 22.546875  C 7.22265625 21.8214285714286  7.69921875 21.251953125  8.33203125 20.8384486607143  C 8.96484375 20.4249441964286  9.71875 20.2181919642857  10.59375 20.2181919642857  C 11.84375 21.3063616071429  13.3125 21.8504464285714  15 21.8504464285714  C 16.6875 21.8504464285714  18.15625 21.3063616071429  19.40625 20.2181919642857  C 20.28125 20.2181919642857  21.03515625 20.4249441964286  21.66796875 20.8384486607143  C 22.30078125 21.251953125  22.77734375 21.8214285714286  23.09765625 22.546875  C 23.41796875 23.2723214285714  23.6484375 24.0267857142857  23.7890625 24.8102678571429  Z M 18.80859375 12.5901227678571  C 19.86328125 13.5549665178571  20.390625 14.7193080357143  20.390625 16.0831473214286  C 20.390625 17.4469866071429  19.86328125 18.611328125  18.80859375 19.576171875  C 17.75390625 20.541015625  16.484375 21.0234375  15 21.0234375  C 13.515625 21.0234375  12.24609375 20.541015625  11.19140625 19.576171875  C 10.13671875 18.611328125  9.609375 17.4469866071429  9.609375 16.0831473214286  C 9.609375 14.7193080357143  10.13671875 13.5549665178571  11.19140625 12.5901227678571  C 12.24609375 11.6252790178571  13.515625 11.1428571428571  15 11.1428571428571  C 16.484375 11.1428571428571  17.75390625 11.6252790178571  18.80859375 12.5901227678571  Z M 26.77734375 36.0075334821429  C 26.92578125 35.8696986607143  27 35.7064732142857  27 35.5178571428571  L 27 6  L 3 6  L 3 35.5178571428571  C 3 35.7064732142857  3.07421875 35.8696986607143  3.22265625 36.0075334821429  C 3.37109375 36.1453683035714  3.546875 36.2142857142857  3.75 36  L 26.25 36  C 26.453125 36.2142857142857  26.62890625 36.1453683035714  26.77734375 36.0075334821429  Z M 28.8984375 1.02287946428572  C 29.6328125 1.70479910714285  30 2.52455357142857  30 3.48214285714286  L 30 35.5178571428571  C 30 36.4754464285714  29.6328125 37.2952008928571  28.8984375 37.9771205357143  C 28.1640625 38.6590401785714  27.28125 39  26.25 39  L 3.75 39  C 2.71875 39  1.8359375 38.6590401785714  1.1015625 37.9771205357143  C 0.3671875 37.2952008928571  0 36.4754464285714  0 35.5178571428571  L 0 3.48214285714286  C 0 2.52455357142857  0.3671875 1.70479910714285  1.1015625 1.02287946428572  C 1.8359375 0.340959821428572  2.71875 0  3.75 0  L 12 0  L 12 2.08928571428572  C 12 2.29241071428571  12.0703125 2.45926339285714  12.2109375 2.58984375  C 12.3515625 2.72042410714286  12.53125 2.78571428571428  12.75 2.78571428571428  L 17.25 2.78571428571428  C 17.46875 2.78571428571428  17.6484375 2.72042410714286  17.7890625 2.58984375  C 17.9296875 2.45926339285714  18 2.29241071428571  18 2.08928571428572  L 18 0  L 26.25 0  C 27.28125 0  28.1640625 0.340959821428572  28.8984375 1.02287946428572  Z " fill-rule="nonzero" fill="#c4210b" stroke="none" transform="matrix(1 0 0 1 2277 440 )" />
  </g>
</svg>