<?xml version="1.0" encoding="utf-8"?>
<svg version="1.1" xmlns:xlink="http://www.w3.org/1999/xlink" width="12px" height="12px" viewBox="176 645  12 12" xmlns="http://www.w3.org/2000/svg">
  <path d="M 182 645  C 185.36 645  188 647.64  188 651  C 188 654.36  185.36 657  182 657  C 178.64 657  176 654.36  176 651  C 176 647.64  178.64 645  182 645  Z " fill-rule="nonzero" fill="#f0f0f0" stroke="none" />
  <path d="M 182 645.5  C 185.08 645.5  187.5 647.92  187.5 651  C 187.5 654.08  185.08 656.5  182 656.5  C 178.92 656.5  176.5 654.08  176.5 651  C 176.5 647.92  178.92 645.5  182 645.5  Z " stroke-width="1" stroke="#797979" fill="none" />
  <path d="M 182 654  C 180.32 654  179 652.68  179 651  C 179 649.32  180.32 648  182 648  C 183.68 648  185 649.32  185 651  C 185 652.68  183.68 654  182 654  " fill-rule="nonzero" fill="#797979" stroke="none" />
</svg>