<?xml version="1.0" encoding="utf-8"?>
<svg version="1.1" xmlns:xlink="http://www.w3.org/1999/xlink" width="18px" height="12px" xmlns="http://www.w3.org/2000/svg">
  <g transform="matrix(1 0 0 1 -11 -14 )">
    <path d="M 17.999947265625 5.62202929687505  C 17.999947265625 7.37615039062504  14.2886953125 11.118181640625  8.99996484374996 11.118181640625  C 3.84586523437499 11.118181640625  0 7.437744140625  0 5.62202929687505  C 0 3.80657812500003  3.86244140624998 0.131783203125003  8.99998242187498 0.131783203125003  C 14.330267578125 0.131800781249968  18.00123046875 3.80661328125002  17.99996484375 5.62204687500001  Z M 9.00791015625 1.13429882812502  C 6.61260937499999 1.13429882812502  4.67085937499997 3.14495507812501  4.67085937499997 5.625  C 4.67085937499997 8.10508007812502  6.61259179687498 10.115701171875  9.00789257812498 10.115701171875  C 11.4039140625 10.115701171875  13.345716796875 8.10506250000001  13.345716796875 5.625  C 13.345716796875 3.14495507812501  11.4039140625 1.13429882812502  9.00791015625 1.13429882812502  Z M 8.99998242187498 2.75802539062497  C 7.47458789062498 2.75802539062497  6.23800195312497 4.0381875  6.23800195312497 5.61751171874998  C 6.23800195312497 7.19666015625001  7.47458789062498 8.47706835937502  8.99998242187498 8.47706835937502  C 10.525376953125 8.47706835937502  11.761453125 7.19666015625001  11.761453125 5.61751171874998  C 11.761453125 4.03816992187498  10.525359375 2.75802539062497  8.99998242187498 2.75802539062497  Z " fill-rule="nonzero" fill="#cccccc" stroke="none" transform="matrix(1 0 0 1 11 14 )" />
  </g>
</svg>