<?xml version="1.0" encoding="utf-8"?>
<svg version="1.1" xmlns:xlink="http://www.w3.org/1999/xlink" width="18px" height="9px" xmlns="http://www.w3.org/2000/svg">
  <g transform="matrix(1 0 0 1 -11 -16 )">
    <path d="M 17.7945222162162 1.53602748648652  C 15.9795764594595 4.67847642567565  12.6027402567568 6.62824672297298  8.98114562837837 6.62824672297298  C 5.35955102027026 6.62824672297298  1.98271479729729 4.67847642567565  0.165694824324339 1.54017593918918  C -0.0998058040540748 1.08177249324327  0.0578351959459376 0.496841412162166  0.514164405405371 0.231340763513504  C 0.972567851351386 -0.0341598648648578  1.55957316891892 0.123481135135155  1.82299958108105 0.579810344594637  C 3.29777264189191 3.12695708108111  6.03989639189187 4.70958977027028  8.97907141216214 4.70958977027028  C 11.9182464324325 4.70958977027028  14.6603701824324 3.12695708108111  16.1351432432432 0.577736128378405  C 16.4006438716217 0.119332682432439  16.985574972973 -0.0383083175675729  17.4439783986487 0.227192310810789  C 17.9023818243243 0.492692939189205  18.0579486283784 1.07762404054055  17.7945222162162 1.53602748648652  Z M 4.83684664864866 7.1198377297297  C 4.6563891891892 7.41645172297299  4.34110718918918 7.58238962837838  4.01545404729729 7.58238962837838  C 3.84744192567567 7.58238962837838  3.67528135135134 7.53883092567566  3.52178880405404 7.44549085135134  C 3.06753381081079 7.1716933175676  2.92233814864867 6.58261378378378  3.19613568243241 6.13043302702707  L 4.25398978378379 4.37978819594598  C 4.52778731756758 3.92553320270273  5.11686685135135 3.78241175675679  5.56904760810811 4.05413507432435  C 6.02330260135131 4.32793260810814  6.16849826351354 4.9170121418919  5.89470072972975 5.36919291891892  L 4.83684664864866 7.1198377297297  Z M 14.3886468648649 7.44341663513516  C 14.2351543175676 7.53675670945949  14.0629937432432 7.58238962837838  13.8949816216216 7.58238962837838  C 13.5714027162162 7.58238962837838  13.2540465 7.41852595945948  13.0735890202703 7.1198377297297  L 12.0157349391892 5.36919291891892  C 11.7419374054054 4.91493792567567  11.8871330675676 4.32793260810814  12.3393138243243 4.05413507432435  C 12.7935688175676 3.78033754054056  13.3805741351351 3.92553320270273  13.6543716689189 4.37771397972975  L 14.7122257702703 6.12835879054053  C 14.9860233040541 6.58261378378378  14.8408276418919 7.16961910135137  14.3886468648649 7.44341663513516  Z M 9.93943698648648 7.87070671621619  C 9.93943698648648 8.39963375675674  9.51007266891892 8.8289980743243  8.98114562837837 8.8289980743243  C 8.45221858783783 8.8289980743243  8.02285427027026 8.39963375675674  8.02285427027026 7.87070671621619  L 8.02285427027026 5.66995536486487  C 8.02285427027026 5.14102832432433  8.45221858783783 4.71166400675676  8.98114562837837 4.71166400675676  C 9.51007266891892 4.71166400675676  9.93943698648648 5.14102832432433  9.93943698648648 5.66995536486487  L 9.93943698648648 7.87070671621619  Z " fill-rule="nonzero" fill="#cccccc" stroke="none" transform="matrix(1 0 0 1 11 16 )" />
  </g>
</svg>