<?xml version="1.0" encoding="utf-8"?>
<svg version="1.1" xmlns:xlink="http://www.w3.org/1999/xlink" width="43px" height="38px" xmlns="http://www.w3.org/2000/svg">
  <g transform="matrix(1 0 0 1 -2349 -528 )">
    <path d="M 0 8.14285714285714  L 21.5 0  L 43 8.14285714285714  L 43 10.8571428571429  L 40.1333333333333 10.8571428571429  C 40.1333333333333 11.2247023809524  39.9802951388889 11.5427827380952  39.67421875 11.8113839285714  C 39.3681423611111 12.0799851190476  39.0060763888889 12.2142857142857  38.5880208333333 12.2142857142857  L 4.41197916666667 12.2142857142857  C 3.99392361111111 12.2142857142857  3.63185763888889 12.0799851190476  3.32578125 11.8113839285714  C 3.01970486111111 11.5427827380952  2.86666666666667 11.2247023809524  2.86666666666667 10.8571428571429  L 0 10.8571428571429  L 0 8.14285714285714  Z M 6 29.8571428571429  L 6 13.5714285714286  L 12 13.5714285714286  L 12 29.8571428571429  L 15 29.8571428571429  L 15 13.5714285714286  L 20 13.5714285714286  L 20 29.8571428571429  L 23 29.8571428571429  L 23 13.5714285714286  L 28 13.5714285714286  L 28 29.8571428571429  L 31 29.8571428571429  L 31 13.5714285714286  L 37 13.5714285714286  L 37 29.8571428571429  L 38.5880208333333 29.8571428571429  C 39.0060763888889 29.8571428571429  39.3681423611111 29.9914434523809  39.67421875 30.2600446428571  C 39.9802951388889 30.5286458333333  40.1333333333333 30.8467261904762  40.1333333333333 31.2142857142857  L 40.1333333333333 32  L 2.86666666666667 32  L 2.86666666666667 31.2142857142857  C 2.86666666666667 30.8467261904762  3.01970486111111 30.5286458333333  3.32578125 30.2600446428571  C 3.63185763888889 29.9914434523809  3.99392361111111 29.8571428571429  4.41197916666667 29.8571428571429  L 6 29.8571428571429  Z M 1.5453125 34  L 41.4546875 34  C 41.8727430555556 33.9285714285714  42.2348090277778 34.0628720238095  42.5408854166667 34.3314732142857  C 42.8469618055556 34.6000744047619  43 34.9181547619048  43 35.2857142857143  L 43 38  L 0 38  L 0 35.2857142857143  C 0 34.9181547619048  0.153038194444444 34.6000744047619  0.459114583333333 34.3314732142857  C 0.765190972222222 34.0628720238095  1.12725694444444 33.9285714285714  1.5453125 34  Z " fill-rule="nonzero" fill="#d9001b" stroke="none" transform="matrix(1 0 0 1 2349 528 )" />
  </g>
</svg>