<?xml version="1.0" encoding="utf-8"?>
<svg version="1.1" xmlns:xlink="http://www.w3.org/1999/xlink" width="527px" height="251px" xmlns="http://www.w3.org/2000/svg">
  <g transform="matrix(1 0 0 1 -424 -1108 )">
    <path d="M 425 1113  A 4 4 0 0 1 429 1109 L 946 1109  A 4 4 0 0 1 950 1113 L 950 1354  A 4 4 0 0 1 946 1358 L 429 1358  A 4 4 0 0 1 425 1354 L 425 1113  Z " fill-rule="nonzero" fill="#f9f9f9" stroke="none" />
    <path d="M 424.5 1113  A 4.5 4.5 0 0 1 429 1108.5 L 946 1108.5  A 4.5 4.5 0 0 1 950.5 1113 L 950.5 1354  A 4.5 4.5 0 0 1 946 1358.5 L 429 1358.5  A 4.5 4.5 0 0 1 424.5 1354 L 424.5 1113  Z " stroke-width="1" stroke-dasharray="9,4" stroke="#d7dde4" fill="none" stroke-dashoffset="0.5" />
  </g>
</svg>