<?xml version="1.0" encoding="utf-8"?>
<svg version="1.1" xmlns:xlink="http://www.w3.org/1999/xlink" width="32px" height="33px" xmlns="http://www.w3.org/2000/svg">
  <g transform="matrix(1 0 0 1 -673 -1502 )">
    <path d="M 31.2400513478819 13.6405933917734  C 31.7466837826273 14.2191503708699  32 14.894133513149  32 15.6655428186109  C 32 16.4517869184086  31.7466837826273 17.1193526635199  31.2400513478819 17.6682400539447  L 17.8690629011553 32.1766689143628  C 17.3350449293967 32.7255563047876  16.7120239623449 33  16 33  C 15.2742832691485 33  14.65810868635 32.7255563047876  14.1514762516046 32.1766689143628  L 0.780487804878049 17.6682400539447  C 0.260162601626016 17.1341874578557  0 16.4666217127444  0 15.6655428186109  C 0 14.8792987188132  0.260162601626016 14.2043155765341  0.780487804878049 13.6405933917734  L 2.30038510911425 11.9716790289953  C 2.83440308087291 11.4227916385705  3.45742404792469 11.1483479433581  4.16944801026958 11.1483479433581  C 4.8951647411211 11.1483479433581  5.51133932391956 11.4227916385705  6.01797175866496 11.9716790289953  L 12 18.5138233310856  L 12 2.84828051247471  C 12.0564826700899 2.07687120701281  12.3166452717159 1.40930546190155  12.8369704749679 0.845583277140932  C 13.3572956782199 0.281861092380306  13.9734702610184 0  14.6854942233633 0  L 17.3145057766367 0  C 18.0265297389816 0  18.6427043217801 0.281861092380306  19.1630295250321 0.845583277140932  C 19.6833547282841 1.40930546190155  19.9435173299101 2.07687120701281  20 2.84828051247471  L 20 18.5138233310856  L 25.982028241335 11.9716790289953  C 26.4886606760804 11.4227916385705  27.1048352588789 11.1483479433581  27.8305519897304 11.1483479433581  C 28.5425759520753 11.1483479433581  29.1655969191271 11.4227916385705  29.6996148908858 11.9716790289953  L 31.2400513478819 13.6405933917734  Z " fill-rule="nonzero" fill="#1789f2" stroke="none" transform="matrix(1 0 0 1 673 1502 )" />
  </g>
</svg>