<?xml version="1.0" encoding="utf-8"?>
<svg version="1.1" xmlns:xlink="http://www.w3.org/1999/xlink" width="12px" height="12px" xmlns="http://www.w3.org/2000/svg">
  <g transform="matrix(1 0 0 1 -127 -97 )">
    <path d="M 133 97  C 136.36 97  139 99.64  139 103  C 139 106.36  136.36 109  133 109  C 129.64 109  127 106.36  127 103  C 127 99.64  129.64 97  133 97  Z " fill-rule="nonzero" fill="#ffffff" stroke="none" />
    <path d="M 133 97.5  C 136.08 97.5  138.5 99.92  138.5 103  C 138.5 106.08  136.08 108.5  133 108.5  C 129.92 108.5  127.5 106.08  127.5 103  C 127.5 99.92  129.92 97.5  133 97.5  Z " stroke-width="1" stroke="#409eff" fill="none" />
  </g>
</svg>