<?xml version="1.0" encoding="utf-8"?>
<svg version="1.1" xmlns:xlink="http://www.w3.org/1999/xlink" width="12px" height="12px" xmlns="http://www.w3.org/2000/svg">
  <g transform="matrix(1 0 0 1 -127 -97 )">
    <path d="M 133 101  C 134.12 101  135 101.88  135 103  C 135 104.12  134.12 105  133 105  C 131.88 105  131 104.12  131 103  C 131 101.88  131.88 101  133 101  Z " fill-rule="nonzero" fill="#ffffff" stroke="none" />
    <path d="M 133 99.5  C 134.96 99.5  136.5 101.04  136.5 103  C 136.5 104.96  134.96 106.5  133 106.5  C 131.04 106.5  129.5 104.96  129.5 103  C 129.5 101.04  131.04 99.5  133 99.5  Z " stroke-width="5" stroke="#409eff" fill="none" />
  </g>
</svg>